<?xml version="1.0" standalone="no"?>
<!DOCTYPE svg PUBLIC "-//W3C//DTD SVG 20010904//EN"
 "http://www.w3.org/TR/2001/REC-SVG-20010904/DTD/svg10.dtd">
<svg version="1.0" xmlns="http://www.w3.org/2000/svg"
 width="1024.000000pt" height="1024.000000pt" viewBox="0 0 1024.000000 1024.000000"
 preserveAspectRatio="xMidYMid meet">

<g transform="translate(0.000000,1024.000000) scale(0.100000,-0.100000)"
fill="#000000" stroke="none">
<path d="M4752 9245 c-253 -39 -485 -126 -727 -272 -142 -86 -431 -309 -536
-413 -112 -111 -240 -270 -300 -371 -63 -108 -164 -323 -199 -424 -17 -49 -61
-191 -96 -315 -104 -361 -146 -429 -357 -571 -303 -204 -410 -314 -457 -468
-40 -129 -25 -219 71 -408 38 -75 69 -149 69 -164 0 -38 -25 -59 -126 -108
-116 -56 -197 -112 -275 -191 -111 -112 -156 -231 -146 -385 6 -105 42 -192
141 -340 83 -122 90 -148 52 -192 -32 -37 -90 -37 -167 0 -31 15 -65 27 -77
27 -24 0 -52 -35 -52 -65 0 -69 157 -237 255 -274 167 -63 295 -44 462 67 29
19 55 33 57 31 10 -12 26 -76 26 -104 0 -67 -81 -145 -151 -145 -47 0 -69 -21
-69 -68 0 -100 266 -242 454 -242 112 0 222 39 294 105 l38 34 19 -36 c11 -19
39 -53 63 -74 135 -118 319 -131 474 -34 l51 32 56 -29 c116 -59 247 -60 377
-3 31 14 58 25 59 25 5 0 -35 -101 -57 -144 -38 -75 -109 -156 -181 -207 -89
-64 -123 -79 -212 -95 -80 -14 -306 -92 -580 -201 -685 -271 -1172 -642 -1509
-1148 -62 -92 -175 -302 -190 -351 -9 -31 192 -239 464 -478 178 -156 492
-387 670 -491 346 -203 625 -338 895 -435 50 -17 119 -42 155 -55 162 -59 494
-146 688 -180 397 -70 643 -90 1052 -82 260 5 514 25 660 51 14 3 41 7 60 10
122 19 373 71 480 100 384 104 807 274 1135 458 151 84 177 100 288 170 240
151 487 334 675 499 l43 37 -82 164 c-295 590 -633 1038 -1009 1339 -353 281
-883 549 -1228 618 -102 21 -99 15 -101 178 -1 89 1 102 17 106 9 3 42 11 72
17 30 7 94 28 142 47 l88 34 35 -26 c47 -36 157 -73 242 -81 142 -13 312 49
411 149 l53 54 37 -19 c92 -48 246 3 363 122 l66 66 44 -39 c24 -22 73 -54
109 -71 59 -28 74 -31 160 -31 84 0 102 3 154 29 101 50 186 141 186 201 0 55
-30 67 -105 40 -62 -22 -93 -19 -126 14 -50 50 -42 73 59 171 71 68 96 101
128 165 39 78 39 80 39 195 0 113 -1 117 -37 191 -39 79 -105 150 -224 240
-122 93 -136 193 -51 376 60 130 77 197 77 298 0 150 -50 276 -170 431 -110
141 -179 248 -203 311 -20 54 -21 74 -18 304 1 155 -2 270 -9 310 -27 149
-112 362 -211 529 l-44 75 0 135 c-1 94 -6 156 -19 205 -25 101 -106 260 -173
345 -112 140 -320 276 -464 302 -54 10 -74 20 -129 65 -79 65 -274 164 -395
200 -80 24 -107 27 -245 27 -144 1 -158 -1 -194 -22 -33 -20 -46 -22 -100 -16
-40 5 -71 15 -91 30 -53 40 -177 93 -280 120 -89 23 -123 27 -300 30 -137 2
-229 -1 -293 -11z m1344 -786 c8 -6 11 -22 8 -38 -8 -39 27 -64 118 -86 197
-48 320 -108 427 -209 82 -78 117 -133 203 -319 132 -289 193 -462 242 -694
24 -113 56 -338 56 -392 l0 -24 -147 6 c-345 14 -574 -47 -660 -175 -17 -26
-33 -52 -35 -58 -2 -7 -17 -5 -43 6 -86 38 -286 12 -357 -45 -22 -18 -22 -18
-44 29 -28 60 -85 124 -138 155 -61 36 -160 55 -335 65 -254 15 -510 -16 -704
-85 -40 -15 -124 -37 -187 -50 -63 -12 -152 -32 -197 -44 -95 -24 -107 -26
-96 -8 4 6 10 89 13 182 6 170 6 170 40 235 41 76 146 187 239 249 35 24 167
94 295 155 l231 112 33 -22 c104 -71 307 -46 478 57 137 83 280 250 364 424
78 162 135 392 128 523 l-3 74 29 -6 c16 -3 35 -11 42 -17z m1002 -1905 l62
-7 1 -321 c1 -177 2 -339 3 -361 1 -38 -1 -41 -54 -73 -97 -58 -144 -67 -345
-67 -179 0 -180 0 -228 28 -50 29 -99 87 -124 146 -8 19 -20 90 -26 158 -18
199 12 346 81 405 36 30 120 64 207 83 64 14 320 19 423 9z m-1630 -24 c125
-11 192 -32 252 -80 l40 -32 0 -146 c0 -316 -75 -490 -236 -552 -50 -19 -84
-24 -214 -28 -384 -11 -487 57 -551 367 -20 96 -37 293 -31 363 3 31 8 38 40
51 136 54 446 79 700 57z m-884 -232 c26 -395 112 -599 290 -686 99 -48 173
-63 351 -69 187 -6 289 8 392 56 168 79 273 288 289 581 l7 119 57 25 c111 50
207 57 272 18 l28 -16 0 -146 0 -145 -20 33 c-33 54 -80 38 -80 -29 0 -76 65
-204 160 -314 73 -85 87 -115 70 -156 -19 -45 -86 -84 -217 -125 -61 -20 -117
-42 -123 -49 -36 -44 50 -97 156 -97 139 1 298 117 329 240 l11 44 175 -1
c192 -2 287 11 390 53 l62 25 -6 -202 c-14 -530 -153 -912 -442 -1216 -110
-115 -196 -178 -328 -241 -472 -226 -1148 -112 -1602 269 -102 86 -135 92
-135 24 0 -87 103 -203 290 -326 134 -88 229 -136 360 -180 175 -60 282 -78
491 -84 l187 -6 4 -116 c10 -223 95 -377 221 -398 48 -7 59 16 27 59 -12 16
-19 32 -17 35 14 13 143 -42 181 -78 l41 -38 -1 -123 c-2 -138 -27 -244 -85
-361 -64 -127 -194 -275 -311 -355 -120 -82 -295 -154 -458 -189 -132 -28
-485 -26 -636 5 -352 70 -704 256 -933 491 -77 80 -198 239 -245 324 -36 65
-86 186 -104 250 l-11 37 63 29 c223 101 367 262 449 501 30 87 67 247 67 289
0 16 11 53 25 83 46 101 49 234 9 356 -9 26 -44 99 -79 162 -61 111 -118 237
-156 348 -18 52 -18 54 1 85 22 35 26 87 10 118 -15 28 -58 24 -109 -11 -79
-54 -160 -52 -276 4 -120 59 -216 169 -297 342 -129 275 -93 540 84 628 94 47
192 33 301 -43 46 -32 121 -46 161 -31 38 14 103 77 153 147 30 43 51 63 65
63 12 0 87 15 167 34 173 41 230 53 252 55 14 1 18 -16 23 -101z"/>
<path d="M6570 6994 c-71 -19 -128 -53 -173 -103 -39 -44 -44 -60 -25 -79 17
-17 58 -15 140 8 49 13 103 20 163 20 104 -1 154 -10 247 -47 66 -25 69 -26
88 -8 14 12 20 31 20 58 0 32 -6 46 -35 73 -83 78 -285 115 -425 78z"/>
<path d="M5179 6965 c-83 -17 -191 -59 -247 -97 -51 -35 -102 -102 -102 -134
0 -46 29 -46 131 1 173 79 312 99 498 71 135 -21 158 -20 170 2 22 42 -10 94
-77 124 -98 44 -250 58 -373 33z"/>
<path d="M6649 6349 c-41 -41 -62 -108 -62 -195 0 -121 39 -174 129 -174 47 0
98 49 114 110 13 50 6 146 -14 195 -32 75 -122 109 -167 64z"/>
<path d="M5236 6350 c-45 -40 -66 -104 -66 -199 1 -124 43 -191 121 -191 82 0
128 76 129 214 0 78 -3 95 -25 133 -26 44 -68 73 -104 73 -11 0 -36 -14 -55
-30z"/>
<path d="M5539 5014 c-23 -28 -15 -91 18 -137 80 -115 284 -185 508 -174 146
7 226 32 294 93 116 104 67 224 -61 150 -178 -102 -424 -84 -664 50 -70 39
-76 40 -95 18z"/>
</g>
</svg>
