<?xml version="1.0" standalone="no"?>
<!DOCTYPE svg PUBLIC "-//W3C//DTD SVG 20010904//EN"
 "http://www.w3.org/TR/2001/REC-SVG-20010904/DTD/svg10.dtd">
<svg version="1.0" xmlns="http://www.w3.org/2000/svg"
 width="300.000000pt" height="300.000000pt" viewBox="0 0 300.000000 300.000000"
 preserveAspectRatio="xMidYMid meet">
<metadata>
Created by potrace 1.10, written by Peter Selinger 2001-2011
</metadata>
<g transform="translate(0.000000,300.000000) scale(0.100000,-0.100000)"
fill="#000000" stroke="none">
<path d="M1188 2970 c-452 -97 -838 -400 -1038 -815 -74 -155 -123 -321 -135
-461 -6 -64 -5 -68 9 -50 9 11 16 34 16 50 0 38 38 224 51 248 5 10 9 26 9 36
0 10 4 22 8 27 4 6 18 37 31 70 22 60 27 70 61 129 101 179 131 218 271 356
91 90 203 173 310 232 25 14 54 31 65 37 90 50 362 131 443 131 21 0 52 7 67
15 29 15 29 15 -26 14 -30 -1 -94 -9 -142 -19z"/>
<path d="M1645 2976 c17 -9 45 -15 64 -16 18 0 50 -4 70 -9 20 -5 61 -15 91
-21 55 -12 266 -87 285 -100 6 -5 32 -20 59 -35 197 -110 393 -285 501 -450
56 -85 170 -295 161 -295 -3 0 6 -32 19 -71 28 -81 55 -194 61 -254 9 -79 15
-105 26 -105 16 0 2 126 -27 241 -116 465 -428 831 -869 1022 -112 48 -297 96
-395 102 -72 5 -74 4 -46 -9z"/>
<path d="M1333 2695 c-72 -20 -145 -58 -225 -117 -134 -99 -198 -194 -257
-383 -17 -55 -38 -110 -46 -123 -9 -12 -50 -47 -91 -78 -55 -40 -81 -67 -95
-97 -24 -54 -24 -59 8 -130 l27 -60 -21 -16 c-12 -9 -39 -26 -60 -39 -51 -31
-75 -66 -81 -118 -4 -36 1 -53 32 -108 34 -61 35 -66 18 -75 -11 -6 -24 -6
-33 0 -7 5 -22 9 -31 9 -52 0 24 -94 84 -105 30 -6 69 5 119 32 4 2 9 -4 13
-13 8 -21 -20 -54 -46 -54 -11 0 -18 -7 -18 -19 0 -26 61 -62 116 -69 44 -5
104 12 104 30 0 6 16 -4 35 -21 40 -34 96 -42 130 -17 16 11 24 11 53 -1 30
-13 41 -13 78 0 l43 14 -19 -37 c-23 -45 -72 -88 -108 -96 -65 -13 -257 -89
-327 -129 -145 -83 -260 -195 -325 -317 -38 -70 -44 -58 90 -175 241 -212 546
-348 834 -371 141 -11 116 8 -45 34 -325 54 -578 177 -813 395 l-68 64 18 35
c11 19 22 37 27 38 4 2 7 8 7 14 0 5 6 15 12 22 7 7 29 32 48 56 19 24 41 48
48 54 8 6 27 23 44 39 17 15 51 37 75 49 24 12 51 29 61 37 10 9 24 17 32 19
8 2 17 7 20 11 3 4 27 13 53 21 27 7 55 20 64 28 8 9 22 16 32 17 9 1 26 7 39
14 12 6 27 9 32 6 6 -3 10 -1 10 4 0 6 10 11 21 11 15 0 19 -4 13 -12 -15 -21
-9 -47 24 -117 21 -42 155 -181 175 -181 8 0 20 -7 27 -15 6 -8 50 -26 97 -41
252 -79 484 25 524 233 9 52 9 66 -4 92 -17 33 -8 41 17 15 9 -8 20 -13 25
-10 5 4 15 1 23 -6 7 -7 31 -22 53 -33 22 -11 42 -23 43 -27 2 -5 10 -8 18 -8
8 0 14 -5 14 -11 0 -5 5 -7 10 -4 6 3 10 2 10 -3 0 -5 17 -21 38 -35 46 -31
108 -91 143 -137 15 -19 35 -44 46 -55 10 -11 24 -31 30 -45 7 -14 24 -43 38
-65 14 -22 28 -48 31 -57 4 -10 10 -18 14 -18 4 0 10 -9 13 -20 6 -23 -29 -56
-136 -128 -205 -138 -374 -204 -631 -246 -158 -27 -179 -45 -37 -34 270 22
600 165 814 353 l28 25 -32 62 c-88 177 -220 334 -356 424 -84 57 -218 119
-283 133 -32 6 -35 10 -38 46 l-3 40 50 12 c42 10 56 9 78 -2 16 -8 41 -15 56
-15 29 0 91 23 115 42 8 7 29 11 47 9 25 -2 41 5 69 29 l36 32 26 -21 c38 -30
94 -28 133 5 40 34 42 58 3 49 -20 -4 -33 -1 -42 10 -11 13 -9 21 17 48 77 81
72 155 -16 225 -47 38 -51 59 -21 123 34 76 22 140 -40 219 -47 59 -61 102
-54 163 7 62 -14 156 -50 226 -14 25 -27 71 -29 102 -3 31 -14 74 -25 96 -25
49 -102 120 -139 129 -15 4 -53 21 -83 39 -79 48 -122 59 -199 51 -55 -5 -72
-2 -111 17 -57 28 -207 34 -287 12z m207 -17 c0 -11 -137 -10 -144 0 -3 5 28
9 69 8 41 0 75 -4 75 -8z m-215 -28 c-45 -21 -65 -24 -65 -11 0 4 19 13 43 18
62 15 67 14 22 -7z m275 10 c0 -5 -2 -10 -4 -10 -3 0 -8 5 -11 10 -3 6 -1 10
4 10 6 0 11 -4 11 -10z m-3 -22 c23 -8 36 -9 43 -2 22 22 241 -37 270 -71 7
-8 31 -20 54 -26 97 -25 154 -96 163 -202 4 -43 17 -83 41 -132 31 -63 36 -81
42 -178 l6 -107 52 -75 c64 -93 70 -115 43 -185 -33 -86 -29 -105 34 -165 44
-42 55 -60 55 -85 0 -36 -19 -77 -49 -104 -40 -36 -18 -104 33 -99 14 2 16 0
6 -4 -8 -3 -18 -11 -22 -17 -5 -8 -8 -7 -8 2 0 6 -9 12 -19 12 -10 0 -29 8
-42 18 -19 16 -22 27 -20 80 2 65 -10 102 -34 102 -12 0 -13 -10 -9 -44 9 -62
-1 -91 -48 -142 -46 -50 -75 -60 -56 -19 21 47 -5 49 -42 4 -18 -23 -48 -48
-67 -55 -38 -17 -110 -15 -110 3 0 6 6 9 13 6 21 -8 128 101 158 161 42 82 57
149 67 296 5 74 13 176 17 225 6 66 5 93 -4 100 -6 6 -15 43 -19 83 -9 96 -24
148 -71 257 -60 140 -138 205 -247 205 -14 0 -30 7 -37 15 -12 14 -15 14 -30
0 -10 -9 -20 -33 -24 -53 -20 -130 -164 -273 -247 -247 -18 6 -16 11 26 56 26
27 56 71 68 97 14 32 22 41 25 29 5 -23 -40 -98 -76 -129 -38 -32 -52 -54 -24
-39 58 31 135 172 118 217 -10 27 -23 14 -45 -46 -32 -87 -104 -158 -199 -195
-72 -28 -151 -86 -174 -129 -7 -11 -15 -53 -18 -91 -5 -52 -13 -80 -29 -102
l-23 -31 -32 19 c-40 24 -83 24 -123 -1 -45 -27 -67 -74 -66 -140 3 -127 103
-250 203 -250 19 0 30 -5 30 -14 0 -8 16 -48 36 -90 40 -84 40 -106 -2 -155
-25 -29 -43 -36 -126 -45 l-38 -4 15 26 c29 54 37 60 31 22 -5 -33 -5 -34 9
-16 18 24 20 76 3 76 -7 0 -22 -16 -33 -36 -11 -20 -37 -46 -57 -58 l-37 -21
-28 21 c-21 16 -28 30 -28 54 0 42 -19 49 -41 15 -25 -38 -66 -55 -123 -53
-45 2 -48 4 -32 18 37 32 43 56 26 114 -14 49 -14 58 0 91 19 47 19 55 0 55
-22 0 -55 -59 -55 -97 0 -51 -69 -85 -125 -62 l-30 13 25 4 c31 5 60 30 60 51
0 9 -16 42 -36 74 -30 48 -35 64 -30 92 7 37 44 74 107 106 61 31 66 50 33
131 -26 66 -27 70 -11 102 10 22 43 53 89 85 85 58 102 84 148 221 44 131 83
204 143 267 79 83 217 169 320 198 60 17 183 14 234 -7z m201 5 c-10 -2 -26
-2 -35 0 -10 3 -2 5 17 5 19 0 27 -2 18 -5z m-548 -18 c0 -3 -33 -26 -72 -52
-93 -60 -227 -192 -229 -226 0 -9 -2 -9 -6 0 -5 13 79 132 104 146 7 5 21 16
31 26 9 9 44 35 77 56 33 22 62 43 63 48 4 8 32 10 32 2z m632 -7 c11 -7 32
-23 46 -35 13 -13 28 -20 33 -17 5 3 9 0 9 -5 0 -17 -11 -13 -75 29 -54 36
-65 58 -13 28z m125 -64 c-3 -3 -12 -4 -19 -1 -8 3 -5 6 6 6 11 1 17 -2 13 -5z
m-220 -84 c3 -13 22 -24 57 -34 59 -18 96 -41 124 -76 45 -58 113 -251 125
-357 l5 -43 -79 0 c-85 0 -140 -16 -159 -47 -9 -14 -21 -17 -48 -15 -21 2 -48
-1 -60 -5 -20 -8 -29 -4 -56 23 -57 57 -173 58 -365 5 -102 -29 -103 -29 -97
-7 3 11 6 40 6 63 0 33 7 50 32 78 35 41 203 131 213 115 3 -6 25 -10 47 -10
113 0 228 145 232 292 1 40 14 51 23 18z m218 -97 c25 -38 3 -24 -40 25 -39
44 -39 45 -7 22 18 -13 39 -34 47 -47z m144 17 c0 -10 -3 -8 -9 5 -12 27 -12
43 0 25 5 -8 9 -22 9 -30z m-109 -80 c4 0 18 -26 30 -57 12 -32 26 -68 31 -81
5 -12 11 -55 14 -95 l5 -72 -14 75 c-7 41 -27 109 -45 150 -18 41 -34 82 -35
90 -2 8 -1 9 1 3 3 -7 8 -13 13 -13z m-1107 0 c-3 -11 -7 -20 -9 -20 -2 0 -4
9 -4 20 0 11 4 20 9 20 5 0 7 -9 4 -20z m1252 -71 c11 -17 -1 -21 -15 -4 -8 9
-8 15 -2 15 6 0 14 -5 17 -11z m-1301 -43 c-3 -15 -8 -25 -11 -23 -2 3 -1 17
3 31 3 15 8 25 11 23 2 -3 1 -17 -3 -31z m1323 -28 c-3 -7 -5 -2 -5 12 0 14 2
19 5 13 2 -7 2 -19 0 -25z m-939 -77 c-13 -17 -27 -30 -32 -30 -6 -1 3 13 19
29 37 38 43 39 13 1z m-449 -58 c-18 -23 -43 -42 -48 -38 -3 4 50 54 58 55 2
0 -3 -8 -10 -17z m1328 -95 c12 -13 14 -35 9 -100 -10 -135 -23 -245 -24 -213
-1 17 -7 36 -14 43 -9 9 -9 18 0 37 14 31 16 173 3 208 -5 14 -7 35 -4 48 5
16 8 19 11 9 3 -8 11 -23 19 -32z m-480 -43 c18 -12 23 -25 23 -58 0 -60 -18
-116 -45 -143 -21 -21 -33 -24 -103 -24 -117 0 -139 22 -157 166 -4 34 -3 54
5 59 43 27 235 27 277 0z m433 -84 l0 -109 -32 -13 c-18 -7 -59 -14 -90 -14
-80 0 -101 21 -106 110 -7 108 21 133 151 134 l77 1 0 -109z m-883 74 c-1 0
-13 -9 -26 -20 l-24 -20 18 34 c13 25 19 30 25 20 5 -7 8 -14 7 -14z m-576
-18 c-10 -9 -11 -8 -5 6 3 10 9 15 12 12 3 -3 0 -11 -7 -18z m714 -112 c14
-87 73 -128 185 -129 123 -1 174 45 187 168 5 52 8 56 39 66 55 19 74 6 74
-47 0 -39 -2 -44 -15 -33 -13 10 -15 9 -15 -11 0 -23 9 -40 54 -103 17 -24 17
-29 4 -42 -8 -9 -33 -21 -54 -29 -45 -15 -49 -26 -13 -39 33 -11 77 9 103 49
19 28 24 30 86 31 37 1 77 7 89 14 13 6 24 10 25 8 2 -2 -1 -46 -5 -98 -12
-158 -71 -282 -167 -356 -123 -94 -330 -85 -488 21 -37 25 -68 45 -70 45 -2 0
-4 -8 -4 -19 0 -27 73 -89 144 -122 65 -30 185 -54 223 -44 21 5 23 2 23 -37
0 -45 29 -104 55 -115 22 -8 33 6 15 17 -13 8 -13 10 0 10 65 0 80 -89 32
-181 -53 -102 -164 -159 -305 -159 -45 0 -102 5 -127 11 -77 17 -184 77 -239
132 -62 63 -75 82 -101 142 l-20 46 28 10 c65 25 121 104 142 200 26 120 25
138 -19 228 -30 61 -39 91 -34 112 6 31 -12 40 -34 18 -19 -19 -80 -1 -114 34
-42 41 -71 108 -71 162 0 81 56 125 115 92 42 -24 72 -21 99 11 17 20 41 32
88 43 l65 16 8 -46 c4 -25 10 -59 12 -76z m-292 88 c-7 -2 -21 -2 -30 0 -10 3
-4 5 12 5 17 0 24 -2 18 -5z m58 -20 c13 -16 12 -17 -3 -4 -10 7 -18 15 -18
17 0 8 8 3 21 -13z m-157 -28 c-10 -15 -21 -46 -25 -69 l-6 -41 -2 36 c-1 33
7 58 33 97 4 7 10 11 13 9 2 -3 -3 -17 -13 -32z m-291 -116 c-6 -6 -7 3 -4 23
4 28 6 29 9 9 2 -13 0 -27 -5 -32z m277 -19 c0 -5 -2 -10 -4 -10 -3 0 -8 5
-11 10 -3 6 -1 10 4 10 6 0 11 -4 11 -10z m70 -125 c29 -32 30 -37 10 -24 -26
17 -79 87 -79 104 0 6 8 -1 17 -15 9 -14 33 -43 52 -65z m-503 -32 c-3 -10 -5
-2 -5 17 0 19 2 27 5 18 2 -10 2 -26 0 -35z m628 -23 c4 -7 -3 -8 -22 -4 -38
9 -42 14 -10 14 14 0 29 -5 32 -10z m-437 -71 c-6 -17 -8 -46 -5 -65 4 -25 2
-34 -6 -31 -15 5 -13 78 3 107 16 30 20 24 8 -11z m1558 -129 c-1 -47 -4 -60
-16 -60 -9 0 -21 -5 -28 -12 -18 -18 -15 -4 7 34 10 18 22 48 26 66 4 17 8 32
9 32 2 0 2 -27 2 -60z m-1386 -68 c0 -21 -5 -28 -20 -28 -24 0 -25 5 -4 34 20
29 24 28 24 -6z m331 -64 c-6 -12 -10 -17 -10 -10 -1 6 -11 12 -23 12 l-21 0
23 25 c19 21 25 23 32 11 4 -8 4 -25 -1 -38z m885 14 c-17 -16 -18 -16 -5 5 7
12 15 20 18 17 3 -2 -3 -12 -13 -22z m-1296 -4 c0 -10 -59 -9 -85 1 -13 6 -2
8 32 7 29 -1 53 -4 53 -8z m173 -25 c-7 -2 -21 -2 -30 0 -10 3 -4 5 12 5 17 0
24 -2 18 -5z m1034 -19 c-3 -3 -12 -4 -19 -1 -8 3 -5 6 6 6 11 1 17 -2 13 -5z"/>
<path d="M1887 2030 c-38 -30 -22 -44 34 -30 36 9 53 8 88 -3 37 -13 43 -13
48 0 10 26 -23 46 -84 51 -49 3 -63 0 -86 -18z"/>
<path d="M1475 2026 c-36 -16 -70 -52 -57 -60 6 -3 31 4 58 15 39 18 58 20
111 15 52 -5 63 -4 63 8 0 9 -9 20 -19 26 -27 14 -120 12 -156 -4z"/>
<path d="M1532 1858 c-30 -39 -19 -108 17 -108 38 0 56 74 25 104 -19 19 -28
20 -42 4z m28 -38 c0 -5 -2 -10 -4 -10 -3 0 -8 5 -11 10 -3 6 -1 10 4 10 6 0
11 -4 11 -10z m0 -30 c0 -5 -4 -10 -10 -10 -5 0 -10 5 -10 10 0 6 5 10 10 10
6 0 10 -4 10 -10z"/>
<path d="M1940 1851 c-26 -50 1 -118 38 -94 33 20 22 113 -13 113 -8 0 -19 -9
-25 -19z"/>
<path d="M1622 1449 c6 -43 52 -64 138 -64 68 0 83 3 101 22 13 12 19 28 16
37 -5 14 -10 14 -41 1 -48 -20 -103 -18 -155 5 -55 25 -63 25 -59 -1z"/>
<path d="M2975 1373 c-4 -10 -9 -34 -11 -53 -16 -130 -95 -420 -115 -420 -5 0
-9 -6 -9 -14 0 -25 -122 -242 -149 -266 -3 -3 -25 -30 -48 -60 -23 -30 -60
-73 -82 -95 -23 -21 -41 -46 -41 -55 1 -26 148 139 222 249 83 125 119 195
165 320 42 118 70 233 79 334 7 75 3 94 -11 60z"/>
<path d="M15 1313 c10 -137 59 -306 131 -460 65 -136 224 -367 224 -325 0 6
-10 23 -23 39 -71 86 -205 326 -222 396 -4 15 -11 30 -16 33 -5 3 -9 16 -9 29
0 13 -5 27 -10 30 -6 3 -10 21 -10 40 0 19 -4 37 -10 40 -5 3 -10 21 -10 40 0
19 -4 37 -10 40 -5 3 -10 28 -10 54 0 27 -7 64 -16 82 -15 34 -15 33 -9 -38z"/>
</g>
</svg>
