<?xml version="1.0" encoding="UTF-8"?>
<svg version="1.1" xmlns="http://www.w3.org/2000/svg" width="1024" height="1024">
<path d="M0 0 C337.92 0 675.84 0 1024 0 C1024 337.92 1024 675.84 1024 1024 C686.08 1024 348.16 1024 0 1024 C0 686.08 0 348.16 0 0 Z " fill="#FED144" transform="translate(0,0)"/>
<path d="M0 0 C0.33 0.33 0.66 0.66 1 1 C3.17694106 1.34559308 5.36848991 1.60077686 7.5625 1.8125 C8.76003906 1.94269531 9.95757813 2.07289062 11.19140625 2.20703125 C14.82208417 2.00967132 15.77024783 1.74949489 18.71875 0.04296875 C23.95258486 -2.83491289 29.08227967 -2.60247304 34.9375 -2.5 C36.04270996 -2.48791504 37.14791992 -2.47583008 38.28662109 -2.46337891 C62.78832225 -1.8755091 89.52509609 8.52509609 107 26 C108.67779913 26.42258781 110.35867675 26.83629232 112.05224609 27.19042969 C126.23291934 30.16352726 138.15837146 36.38991586 149 46 C149.62003906 46.48984375 150.24007812 46.9796875 150.87890625 47.484375 C167.08470077 60.3910033 177.19743367 82.48139479 179.82568359 102.66308594 C180.08882689 106.19082775 179.89408476 109.67371826 179.74072266 113.20410156 C179.27495065 124.70886662 181.12701197 130.80493443 187.71679688 140.06591797 C199.24171281 157.43661509 206.50714314 180.49578229 206.08984375 201.2734375 C206.06942253 203.41926857 206.04924785 205.565102 206.02929688 207.7109375 C205.98590884 211.04372654 205.93747817 214.37634918 205.88354492 217.70898438 C205.53828324 240.7445717 208.89900339 254.22651079 223.37890625 272.64453125 C237.48903259 290.61871015 246.85315541 307.50338799 245 331 C243.75905224 340.83025286 239.21769267 349.43716162 234.80029297 358.17578125 C231.99122835 364.57887179 231.88919799 372.68414506 233.61328125 379.3828125 C236.72215996 386.36751798 242.9984812 390.55450103 249 394.9375 C258.50780294 402.06370064 267.03472388 411.76381651 269 424 C269.98622507 438.21134164 268.04946886 450.50717454 259 462 C258.2884375 462.92039062 258.2884375 462.92039062 257.5625 463.859375 C253.83472607 468.43805385 249.49896946 472.19896136 245 476 C243.67868182 477.09631369 243.67868182 477.09631369 243.875 479.8125 C243.97849835 482.45170797 244.3128845 484.48602979 245 487 C250.97804308 487.87425926 255.26430327 488.21606465 261 486 C264.25 485.75 264.25 485.75 267 486 C269 488 269 488 269.5 491.125 C268.57153204 498.32062666 263.33224286 503.24501019 257.8515625 507.6875 C248.49604884 514.31925652 238.33049249 516.16959922 227 515 C218.71364105 512.77440719 212.47713435 508.45949541 206 503 C205.01 502.34 204.02 501.68 203 501 C202.47792969 501.64066406 201.95585938 502.28132812 201.41796875 502.94140625 C193.93053684 511.74012221 184.2483289 520.04697917 172.30859375 521.27734375 C166.41312507 521.4778699 162.20224906 520.77453283 157 518 C156.44054687 518.64066406 155.88109375 519.28132812 155.3046875 519.94140625 C144.59734529 531.49225291 131.73001383 536.78353838 116.09765625 538.27734375 C105.34103092 538.66316245 95.17345106 535.53696349 86 530 C85.34 529.34 84.68 528.68 84 528 C78.51813738 528.5049084 73.11783461 530.93861862 67.9453125 532.74023438 C66.80449219 533.12985352 66.80449219 533.12985352 65.640625 533.52734375 C64.62790527 533.87913696 64.62790527 533.87913696 63.59472656 534.23803711 C59.78264593 535.35748608 55.87843981 536.13812449 52 537 C52 545.91 52 554.82 52 564 C54.64 564 57.28 564 60 564 C62.76220703 564.49975586 62.76220703 564.49975586 65.2578125 565.21484375 C66.20132568 565.48385498 67.14483887 565.75286621 68.11694336 566.0300293 C69.10960205 566.32949463 70.10226074 566.62895996 71.125 566.9375 C72.70390015 567.40893433 72.70390015 567.40893433 74.31469727 567.88989258 C132.07086507 585.62208731 189.33051212 621.25171937 227 669 C227.94336613 670.15523798 228.88879077 671.3087971 229.8359375 672.4609375 C236.48939956 680.59054528 242.65005502 688.94396475 248.46484375 697.69189453 C249.543282 699.31332507 250.62709894 700.93118479 251.71484375 702.54638672 C264.45896406 721.48784941 275.64594019 741.14194849 285.97872925 761.48770142 C286.61444202 762.7390744 287.25286322 763.98907541 287.89407349 765.23764038 C288.78248869 766.97332504 289.65529807 768.71697101 290.52734375 770.4609375 C291.28132446 771.95826416 291.28132446 771.95826416 292.05053711 773.48583984 C293 776 293 776 292 779 C289.953125 780.875 289.953125 780.875 287.25 783 C286.2496875 783.79664063 285.249375 784.59328125 284.21875 785.4140625 C283.42404297 786.04683105 283.42404297 786.04683105 282.61328125 786.69238281 C280.48373263 788.41845158 278.41419306 790.20910756 276.34106445 792.00219727 C269.44166942 797.95513547 262.23797521 803.38532332 254.82910156 808.68554688 C253.11343139 809.91848444 251.41054931 811.16693504 249.7109375 812.421875 C240.02030308 819.52853402 229.87847875 825.91154774 219.70166016 832.29443359 C217.88215168 833.44309492 216.06940121 834.60252328 214.26318359 835.77197266 C207.98962928 839.8277949 201.60594298 843.51423574 195 847 C193.93442871 847.56525391 192.86885742 848.13050781 191.77099609 848.71289062 C157.79619727 866.64497887 123.06439133 881.63765906 86 892 C85.32243652 892.19352051 84.64487305 892.38704102 83.94677734 892.58642578 C79.65099446 893.81048702 75.33630834 894.92903675 71 896 C69.86884766 896.28157959 69.86884766 896.28157959 68.71484375 896.56884766 C30.46089778 905.98835139 -8.42886401 910.18792076 -47.75952148 910.18530273 C-51.39904705 910.18747703 -55.03826259 910.2056602 -58.67773438 910.22460938 C-74.21529445 910.26170866 -89.53799925 909.50755933 -105 908 C-106.01112854 907.90423676 -107.02225708 907.80847351 -108.06402588 907.70980835 C-144.40056277 904.24330957 -180.46449791 895.64146422 -215 884 C-216.1250293 883.62214355 -217.25005859 883.24428711 -218.40917969 882.85498047 C-236.07711017 876.87003762 -253.07322088 869.82384581 -270 862 C-271.63496058 861.25810864 -273.2703335 860.51712485 -274.90625 859.77734375 C-284.57721496 855.36476473 -293.81254828 850.33862043 -303 845 C-304.50240234 844.13955078 -304.50240234 844.13955078 -306.03515625 843.26171875 C-309.03782807 841.53115549 -312.02091183 839.77086234 -315 838 C-315.64098633 837.62182129 -316.28197266 837.24364258 -316.94238281 836.85400391 C-334.09888903 826.70153947 -350.34684198 815.33580093 -366 803 C-367.17101544 802.09654103 -368.34292212 801.19423631 -369.515625 800.29296875 C-376.12147163 795.19470644 -382.43680002 789.93796709 -388.55859375 784.26171875 C-390.65389313 782.32063341 -392.77704888 780.43015898 -394.9375 778.5625 C-403.72958519 770.88490448 -412.17080504 762.92664488 -420.4375 754.6875 C-421.20690918 753.92268311 -421.97631836 753.15786621 -422.76904297 752.36987305 C-424.21915353 750.91578827 -425.65738395 749.44972634 -427.08154297 747.97021484 C-428.26555736 746.75425708 -429.4834585 745.56913532 -430.75048828 744.43994141 C-432.22265625 743.01953125 -432.22265625 743.01953125 -434 740 C-433.65727539 736.70058937 -432.41570302 733.97563813 -431 731 C-430.66629395 730.27055176 -430.33258789 729.54110352 -429.98876953 728.78955078 C-428.90158662 726.51432276 -427.74844007 724.28778739 -426.5625 722.0625 C-426.13001953 721.24765137 -425.69753906 720.43280273 -425.25195312 719.59326172 C-417.82907089 705.8904944 -408.84439335 693.0679196 -399 681 C-398.54689453 680.44393066 -398.09378906 679.88786133 -397.62695312 679.31494141 C-387.70854521 667.24346346 -377.01894714 655.80904704 -364.6953125 646.16015625 C-362.46336497 644.37136352 -360.33107308 642.53268857 -358.1953125 640.6328125 C-326.34237632 612.62625453 -285.12251875 594.84156301 -245.75195312 580.37890625 C-243.23788378 579.45494323 -240.72601982 578.52671528 -238.21679688 577.58984375 C-214.611076 568.78250817 -214.611076 568.78250817 -202.109375 566.6796875 C-188.63057723 563.73331713 -177.34815499 553.97517696 -169.71875 542.84375 C-166.10277655 536.86095756 -163.57657123 530.4762466 -161 524 C-162.03640625 524.34933594 -163.0728125 524.69867187 -164.140625 525.05859375 C-165.51038977 525.51830932 -166.88018293 525.9779403 -168.25 526.4375 C-168.93191406 526.66759766 -169.61382812 526.89769531 -170.31640625 527.13476562 C-182.45805196 531.20162754 -191.93223433 530.63191519 -204 526 C-205.52947266 525.10861328 -205.52947266 525.10861328 -207.08984375 524.19921875 C-209.90809613 522.65038479 -209.90809613 522.65038479 -212.421875 523.9140625 C-213.19015625 524.47867188 -213.9584375 525.04328125 -214.75 525.625 C-223.98587269 531.72727302 -232.97853461 533.12878069 -244 532 C-255.6188527 529.13174766 -264.48303278 521.77545083 -271 512 C-271.47308594 512.45890625 -271.94617188 512.9178125 -272.43359375 513.390625 C-282.39846094 522.63677857 -293.13880124 525.42608019 -306.546875 525.18359375 C-321.08069387 524.41086809 -336.51795114 518.12205806 -346.6875 507.5 C-348.77476941 504.82153868 -349.02897111 503.80685925 -349.5625 500.25 C-348.96497954 496.79765957 -348.68974642 496.04615021 -346 494 C-343.984375 493.69921875 -343.984375 493.69921875 -341.75 493.6875 C-337.10730883 493.32396138 -334.78655146 491.77297522 -331.41015625 488.66796875 C-328.66536762 485.42136281 -327.73171553 482.80001284 -327.8125 478.5625 C-327.81894531 477.82128906 -327.82539063 477.08007812 -327.83203125 476.31640625 C-328.01350725 473.81372562 -328.46023542 471.44837215 -329 469 C-329.96679688 469.60328125 -330.93359375 470.2065625 -331.9296875 470.828125 C-335.91279216 473.28957686 -339.94286406 475.66294503 -344 478 C-344.84304688 478.49113281 -345.68609375 478.98226563 -346.5546875 479.48828125 C-356.14727852 484.18216476 -369.60011534 483.40640815 -379.625 480.4375 C-385.21845759 478.21725569 -389.58113324 475.03963566 -394 471 C-394.7115625 470.36835937 -395.423125 469.73671875 -396.15625 469.0859375 C-400.81490633 464.72279296 -404.83828575 460.0921038 -407 454 C-406.90322581 447.90322581 -406.90322581 447.90322581 -404 445 C-400.03337132 444.43333876 -397.5590812 445.07849935 -394.125 446.9375 C-389.94063615 449.1776948 -386.76964015 449.92180918 -382 450 C-379.56936663 448.86225672 -377.88186104 447.88186104 -376 446 C-375.0707046 439.14091494 -377.70678162 435.71272523 -381.5625 430.4375 C-392.12503465 415.30771914 -398.78841563 401.81724269 -397 383 C-393.93677927 366.38156899 -383.92744687 354.92203658 -370.5 345.5 C-362.02359034 339.69992892 -352.78209138 334.26069713 -343 331 C-342.57854345 324.57814508 -343.59666269 320.76683996 -346.6875 315.1875 C-347.42443759 313.78451554 -348.16011207 312.38086691 -348.89453125 310.9765625 C-349.4352124 309.95997559 -349.4352124 309.95997559 -349.98681641 308.92285156 C-356.90872827 295.7862304 -360.90055339 282.64330112 -356.4375 267.875 C-349.05530536 248.32633127 -332.44495161 236.64565292 -315.74365234 225.41064453 C-288.65872685 207.1780635 -281.66519223 188.64278066 -273 157.9375 C-268.17241789 140.90629246 -262.66434778 124.9059444 -255 108.9375 C-254.70671814 108.32375519 -254.41343628 107.71001038 -254.11126709 107.07766724 C-241.22489672 80.26175272 -221.59910376 56.58799554 -198.00683594 38.54931641 C-195.88576725 36.9118101 -193.78923614 35.24627424 -191.6953125 33.57421875 C-141.88318155 -6.04696504 -59.39320823 -40.5193665 0 0 Z " fill="#000000" transform="translate(564,114)"/>
<path d="M0 0 C4.8333472 -0.08333357 9.23692563 0.04738513 14 1 C14.33 3.31 14.66 5.62 15 8 C19.54460769 9.40407173 23.68205953 10.25620563 28.4375 10.6875 C50.3156151 13.46567335 74.0213762 21.3804384 91.05859375 35.734375 C96.82326827 40.5762222 102.71902025 41.57546048 110 43 C125.59315026 46.69311454 139.12457792 55.68918346 148.15625 68.99609375 C158.14110823 85.26379709 162.96348912 102.85930168 163.03787231 121.93902588 C163.20410712 131.47233402 165.77474235 138.16810153 170.51531982 146.33288574 C172.42334553 149.62924389 174.21786408 152.98634085 176.015625 156.34375 C176.36954315 157.00107117 176.7234613 157.65839233 177.08810425 158.33563232 C180.07381634 163.9598254 182.42585059 169.6832303 184.375 175.75 C184.62975098 176.53922852 184.88450195 177.32845703 185.14697266 178.14160156 C185.83404306 180.41560495 186.43532585 182.69271344 187 185 C187.29064331 186.13042725 187.29064331 186.13042725 187.5871582 187.28369141 C189.92193969 197.86125766 189.38405788 208.90310114 189.45629883 219.67919922 C189.56644181 233.48943424 189.97717746 246.52825881 196.625 259 C196.97127441 259.66878174 197.31754883 260.33756348 197.67431641 261.02661133 C202.21825835 269.58487693 207.86929804 277.30665312 213.83837891 284.92089844 C224.23665662 298.18807478 230.08901237 308.92709643 229 326 C227.87091087 333.51357494 224.70314581 340.33237368 221.51342773 347.16772461 C217.20356599 356.5267869 215.16289604 366.57851751 217.6875 376.77734375 C221.8830539 388.12282076 229.66294877 394.69180294 239.24609375 401.625 C246.25668985 406.71397713 251.72551212 412.44938512 254 421 C255.24512935 432.35708888 253.77769178 442.15803783 246.9375 451.4375 C245.96567441 452.63101524 244.98662086 453.81868595 244 455 C243.48566406 455.73347656 242.97132813 456.46695312 242.44140625 457.22265625 C241.96574219 457.80917969 241.49007812 458.39570312 241 459 C240.34 459 239.68 459 239 459 C238.773125 459.53625 238.54625 460.0725 238.3125 460.625 C237 463 237 463 234.4375 466.0625 C230.51098597 470.79445281 230.60195928 474.96869539 230.65234375 480.9140625 C231.1700947 485.50982933 232.86715243 488.63853923 236 492 C238.6526218 493.84475674 238.6526218 493.84475674 241 495 C241 495.66 241 496.32 241 497 C235.85207818 498.71597394 230.69123508 499.10353724 225.58984375 497.01171875 C219.61522013 493.37365462 214.91198357 488.39286459 212 482 C211.67849088 478.76935187 212.20314265 476.12102461 213 473 C215.49156805 460.50630984 215.61372499 446.81480974 208.609375 435.81640625 C206.16003641 432.6129292 204.66487963 431.20457835 200.75 430 C198.0372678 429.7950271 198.0372678 429.7950271 196 431 C195.60199745 435.57702937 196.04228764 438.3920212 198 442.5625 C202.05631296 452.12380911 200.64851079 462.25481506 197.3203125 471.84375 C191.22735855 486.40915471 181.0230804 500.46867159 166.359375 507.21484375 C164 508 164 508 161 508 C161.32484375 506.948125 161.32484375 506.948125 161.65625 505.875 C163.3619518 500.06297905 164.55096885 495.06065739 164 489 C162.19380884 486.72318673 162.19380884 486.72318673 159.64453125 486.99609375 C155.99104401 488.38301579 154.65109707 490.86732917 152.6875 494.0625 C144.97844887 505.81038873 134.81655789 515.06823403 121 519 C120.30519531 519.20367188 119.61039063 519.40734375 118.89453125 519.6171875 C109.50920524 522.04242219 100.96272916 521.71787284 92 518 C95.67618384 514.97416526 99.48560412 512.27821632 103.4375 509.625 C108.12201467 506.44873468 112.10830703 503.10205476 116 499 C116.66 499 117.32 499 118 499 C118.35578125 498.14535156 118.35578125 498.14535156 118.71875 497.2734375 C120.27847114 494.50588353 122.17048617 492.7849606 124.5 490.625 C153.10431053 462.47341956 168.33190705 414.53113531 169.05221558 375.14486694 C169.03329506 372.03194603 168.98216128 368.92098211 168.921875 365.80859375 C168.89460142 363.45769626 168.86860051 361.10678373 168.84375 358.75585938 C168.80074367 355.10496429 168.75034565 351.45487719 168.67773438 347.80444336 C168.42984664 334.73810402 168.41850306 322.95563519 172.76269531 310.54272461 C176.71515645 299.22580203 176.1921097 287.68517228 176 275.875 C175.94686812 272.53907726 175.90698341 269.2033719 175.875 265.8671875 C175.85010498 264.72514359 175.85010498 264.72514359 175.82470703 263.56002808 C175.80725466 261.70584666 175.89467956 259.85127008 176 258 C176.66 257.34 177.32 256.68 178 256 C177.91071355 251.98210996 177.27488883 250.31829233 174.625 247.25 C172.02318886 244.92855325 172.02318886 244.92855325 169 243 C168.49926758 241.14794922 168.49926758 241.14794922 168.33203125 238.9296875 C168.23462646 237.71684082 168.23462646 237.71684082 168.13525391 236.47949219 C167.97147195 233.47702015 167.84643917 230.47688801 167.76098633 227.47119141 C166.33363037 181.90012564 150.38180919 131.00943964 123 94 C122.28714844 93.02675781 121.57429688 92.05351562 120.83984375 91.05078125 C107.98675704 74.43470971 89.77942819 64.69268874 69 62 C65.79055138 61.81723774 62.58914634 61.76977936 59.375 61.75 C58.529375 61.729375 57.68375 61.70875 56.8125 61.6875 C51.88111678 61.62601634 51.88111678 61.62601634 47.4140625 63.515625 C46.94742187 64.00546875 46.48078125 64.4953125 46 65 C46.03093173 67.41585574 46.03093173 67.41585574 47 70 C51.1432273 72.45387569 55.21511913 73.69596399 59.875 74.8125 C73.23262822 78.2232423 84.87400027 82.62917686 96 91 C96.88558594 91.62841797 96.88558594 91.62841797 97.7890625 92.26953125 C107.33128464 99.48998276 112.92401007 110.46519409 118 121 C118.47598633 121.98371582 118.95197266 122.96743164 119.44238281 123.98095703 C135.40695048 157.35915324 150.12513333 195.72435074 150.01416016 233.21606445 C150.01211578 234.11299515 150.01007141 235.00992584 150.00796509 235.93403625 C150.00533661 236.61580429 150.00270813 237.29757233 150 238 C149.44448959 238.00364563 148.88897919 238.00729126 148.31663513 238.01104736 C142.45848904 238.05333123 136.60109344 238.1229855 130.7434082 238.20751953 C128.56640178 238.23549377 126.38929823 238.25682351 124.2121582 238.27099609 C106.64164573 238.39214419 85.36669239 238.88266832 71.86328125 252.08984375 C69.46719668 255.20533386 67.71952509 258.47497357 66 262 C64.89205078 261.67515625 64.89205078 261.67515625 63.76171875 261.34375 C49.81559004 257.51609587 37.84904125 258.42235993 25.0546875 265.66796875 C24.03761719 266.32732422 24.03761719 266.32732422 23 267 C22.67128906 266.2265625 22.34257813 265.453125 22.00390625 264.65625 C17.71677505 255.26871067 12.69628659 248.76702925 3.00498962 244.71626282 C-0.46527559 243.47654471 -3.99027492 242.88707743 -7.625 242.3359375 C-8.44693848 242.20980072 -9.26887695 242.08366394 -10.11572266 241.95370483 C-18.84795816 240.72241266 -27.5274896 240.54589088 -36.33398438 240.60888672 C-38.99921799 240.62499527 -41.66293612 240.60890875 -44.328125 240.58984375 C-59.97365414 240.56934436 -75.13596142 242.37315851 -90.125 247 C-91.38570313 247.37125 -91.38570313 247.37125 -92.671875 247.75 C-96.60493762 248.91895979 -100.49197072 250.1687066 -104.36328125 251.52734375 C-109.82382405 253.36629355 -115.41784869 254.44624643 -121.0625 255.5625 C-123.13702382 255.97895195 -125.21124981 256.39689062 -127.28515625 256.81640625 C-128.75299561 257.1105542 -128.75299561 257.1105542 -130.25048828 257.41064453 C-132.69551857 257.93473467 -135.08665115 258.54961232 -137.49609375 259.21484375 C-140.82624051 259.96106393 -141.91033893 259.95252197 -145 259 C-144.83862549 258.30938477 -144.67725098 257.61876953 -144.51098633 256.90722656 C-143.95056272 253.71872953 -143.85625666 250.72135633 -143.82421875 247.484375 C-143.80037109 246.23269531 -143.77652344 244.98101562 -143.75195312 243.69140625 C-143.70924254 241.07958935 -143.67785277 238.46756094 -143.65820312 235.85546875 C-143.34052199 221.44899878 -137.62066738 211.92334465 -127.875 201.4375 C-115.98180962 190.33193812 -101.84288374 183.57910735 -87.29003906 176.60595703 C-84.12729373 175.06213551 -81.01115368 173.4505388 -77.8984375 171.80859375 C-76.03648247 170.85151554 -74.17450458 169.89448181 -72.3125 168.9375 C-71.47066162 168.47730469 -70.62882324 168.01710938 -69.76147461 167.54296875 C-64.05586058 164.68057784 -64.05586058 164.68057784 -60.98730469 165.60888672 C-59.12890625 166.67578125 -59.12890625 166.67578125 -56 169 C-44.66703141 173.19739578 -31.78694659 170.98332021 -20.86328125 166.3359375 C-12.26606313 162.37385625 -4.97921368 157.43690992 2 151 C2.61875 150.46117187 3.2375 149.92234375 3.875 149.3671875 C23.50282203 131.28414776 35.82862927 100.02337507 37.11132812 73.71679688 C37.23050672 69.13803233 37.166311 64.57663246 37 60 C40.96 60.495 40.96 60.495 45 61 C42.5558206 59.7779103 40.78970128 59.76358932 38.0625 59.6875 C37.18722656 59.65011719 36.31195312 59.61273438 35.41015625 59.57421875 C32.94172513 59.80068668 32.94172513 59.80068668 31.2890625 61.45703125 C29.40937185 65.16514826 28.96622539 68.92084721 28.3125 73 C23.51097238 99.48600237 9.63958907 121.40128869 -8.9375 140.4375 C-9.66437012 141.19514648 -10.39124023 141.95279297 -11.14013672 142.73339844 C-21.01962161 152.61507633 -32.63554351 158.14532073 -46.625 158.1875 C-48.75038634 158.13991672 -50.87568814 158.08264614 -53 158 C-49.47574657 154.42410915 -45.84627045 150.99578078 -42.125 147.625 C-40.08006678 145.75351954 -38.03992561 143.87694886 -36 142 C-34.96552734 141.05060547 -34.96552734 141.05060547 -33.91015625 140.08203125 C-23.12815371 129.78900842 -15.36818479 115.48319458 -12 101 C-11.814375 100.27167969 -11.62875 99.54335937 -11.4375 98.79296875 C-10.81433128 94.81470416 -10.85564143 90.89513009 -10.875 86.875 C-10.87113281 86.06417969 -10.86726563 85.25335938 -10.86328125 84.41796875 C-10.86457031 83.63808594 -10.86585938 82.85820312 -10.8671875 82.0546875 C-10.86831543 81.34812012 -10.86944336 80.64155273 -10.87060547 79.91357422 C-10.93447277 77.77740811 -10.93447277 77.77740811 -12 75 C-16.50947299 76.02167554 -16.50947299 76.02167554 -19.50390625 79.328125 C-19.85324219 80.29234375 -20.20257812 81.2565625 -20.5625 82.25 C-20.96855469 83.32894531 -21.37460937 84.40789062 -21.79296875 85.51953125 C-22.59331602 87.82732872 -23.38765867 90.13721795 -24.17578125 92.44921875 C-33.96574684 120.92621962 -53.57917499 143.28049061 -80.36328125 156.80859375 C-86.03461309 159.56212817 -91.88411354 161.837138 -97.75439453 164.12573242 C-121.9170502 173.5754839 -143.69976721 187.98869893 -155.37109375 211.796875 C-160.0789568 222.90260323 -160.3397833 233.6659769 -160.390625 245.60742188 C-160.57566868 255.10119072 -162.34286291 262.77999204 -167.875 270.625 C-168.3803125 271.34816406 -168.885625 272.07132812 -169.40625 272.81640625 C-171.90331561 276.23763095 -174.41922905 279.6413371 -177 283 C-179.87771765 281.67182262 -182.13413015 280.14951569 -184.5625 278.125 C-192.46335459 272.06224291 -203.09851209 268.99111477 -213 270 C-225.41313266 272.60503163 -236.74480773 278.31672938 -244 289 C-253.49985913 305.29489725 -255.09138461 325.31016688 -250.4375 343.625 C-244.06877391 364.92883727 -232.28893228 388.85938963 -212.296875 400.1640625 C-200.02862518 406.74215303 -189.02476728 409.61075599 -175 409 C-174.38125 410.86978516 -174.38125 410.86978516 -173.75 412.77734375 C-169.38305288 425.74488234 -164.32371231 438.08141305 -157.78515625 450.109375 C-157.42349365 450.77477295 -157.06183105 451.4401709 -156.68920898 452.12573242 C-155.69431581 453.93635127 -154.67989507 455.73620176 -153.6640625 457.53515625 C-149.5460185 466.10958119 -148.60058383 474.4645567 -151.625 483.5 C-157.08271543 497.21131316 -165.61123101 505.16688135 -179 511 C-182.45731264 512.15243755 -185.23259213 512.16824837 -188.875 512.1875 C-190.08929688 512.20167969 -191.30359375 512.21585938 -192.5546875 512.23046875 C-195.84344421 512.01047255 -198.05365948 511.41715618 -201 510 C-200.25943359 508.55367187 -200.25943359 508.55367187 -199.50390625 507.078125 C-198.85655763 505.80219148 -198.20943401 504.52614379 -197.5625 503.25 C-197.23701172 502.61578125 -196.91152344 501.9815625 -196.57617188 501.328125 C-193.93040249 496.09113818 -192.84522846 492.27024315 -192.75 486.4375 C-192.72421875 485.48746094 -192.6984375 484.53742188 -192.671875 483.55859375 C-192.82594144 481.00204498 -192.82594144 481.00204498 -194.140625 479.09765625 C-196.0599788 477.77569603 -196.0599788 477.77569603 -198.9140625 477.8125 C-203.5166002 479.58360312 -204.40879505 482.66998178 -206.375 487 C-212.39103825 499.18646369 -219.97268779 508.23185493 -233.09765625 513.1640625 C-238.93577893 514.84556755 -243.19049951 514.71340841 -248.5625 512 C-254.18433075 508.56064774 -258.91036014 504.20482313 -261.0625 497.875 C-261 495 -261 495 -260 492.0625 C-258.76091641 488.26780649 -259.05502002 485.8526107 -260 482 C-261.02421261 479.89061215 -261.02421261 479.89061215 -263 479 C-266.80224897 479.15540527 -268.46531629 479.42234171 -271.08984375 482.2578125 C-271.69957031 483.20398438 -272.30929687 484.15015625 -272.9375 485.125 C-279.47249576 494.66189362 -285.88338905 500.29446302 -297 504 C-307.18860115 504.89373694 -317.9496916 505.33491864 -327 500 C-327 499.34 -327 498.68 -327 498 C-325.80313081 497.12090997 -324.56564329 496.29682309 -323.3125 495.5 C-317.69588939 491.37982206 -314.94281123 486.39738673 -313.48828125 479.61328125 C-312.84846427 470.55631649 -316.54042674 461.59826636 -319.33569336 453.11547852 C-322.69415119 442.4204998 -321.04330352 433.91612918 -316 424 C-315.45730469 423.1234375 -314.91460937 422.246875 -314.35546875 421.34375 C-312.6152426 418.33471342 -312.55359479 416.42243998 -313 413 C-313.91666667 410.91666667 -313.91666667 410.91666667 -316 410 C-319.39147911 409.52767568 -319.39147911 409.52767568 -323 411 C-330.06206476 417.52114065 -334.95648091 427.48838343 -336 437 C-335.87498129 439.29289638 -335.72827969 441.58468985 -335.5625 443.875 C-335.54665245 448.89339059 -335.76950136 451.78268393 -339.25 455.5 C-348.64398911 463.30036595 -358.38726228 466.41799446 -370.3671875 466.35546875 C-375.59194823 465.84422872 -379.77373771 464.09984114 -384 461 C-384.99 459.515 -384.99 459.515 -386 458 C-385.2265625 457.97421875 -384.453125 457.9484375 -383.65625 457.921875 C-375.99855255 457.50487167 -369.57804031 456.69346096 -364.0625 451 C-361.22343136 445.6558708 -361.10375377 439.3474257 -362.6484375 433.578125 C-365.16969939 426.81166147 -369.00276607 420.97498851 -373 415 C-379.9487537 404.55546672 -384.48336006 396.90023242 -383 384 C-380.20962828 373.05922047 -372.81059415 363.86353611 -363.28662109 357.93310547 C-358.59632962 355.15702187 -353.80288926 352.57449583 -349 350 C-347.73784978 349.31459603 -346.47611146 348.62843285 -345.21484375 347.94140625 C-336.8094415 343.38334708 -336.8094415 343.38334708 -333.70703125 341.9140625 C-331.35736328 340.65588789 -330.99796944 339.46165795 -330 337 C-329.46375 335.906875 -328.9275 334.81375 -328.375 333.6875 C-325.63113468 326.32895209 -327.2078946 320.07210906 -330 313 C-331.27786546 310.28382597 -332.63382467 307.61014237 -334 304.9375 C-339.83870109 293.44123506 -344.10394731 281.95051423 -340.05078125 268.95703125 C-336.53191524 261.61958509 -331.56806327 256.13557978 -325.125 251.25 C-324.5669165 250.82662354 -324.00883301 250.40324707 -323.43383789 249.96704102 C-318.59495035 246.34306012 -313.58216574 243.00360338 -308.53125 239.68505859 C-302.48941591 235.70251423 -296.685231 231.48274329 -291 227 C-290.17628906 226.35546875 -289.35257812 225.7109375 -288.50390625 225.046875 C-269.76511587 209.49968298 -262.73714209 180.36588388 -256.0625 157.9375 C-252.80137909 147.04408799 -248.82802146 136.69758729 -244.08496094 126.36816406 C-243.04846797 124.10579192 -242.04112546 121.83247326 -241.0390625 119.5546875 C-225.03951015 83.72222901 -199.60596688 58.915554 -167 38 C-166.25991699 37.52175781 -165.51983398 37.04351562 -164.75732422 36.55078125 C-144.46817979 23.45938223 -123.70933015 10.8106017 -100 5 C-98.90703613 4.72929688 -98.90703613 4.72929688 -97.79199219 4.453125 C-71.56962634 -1.79884463 -43.44388926 -1.69299845 -18.4152832 8.75024414 C-13.88179295 10.59025335 -10.87222436 11.52119222 -6 10 C-2.31095016 7.23321262 -1.19659171 4.38750292 0 0 Z " fill="#3A1F08" transform="translate(565,116)"/>
<path d="M0 0 C0.7687021 4.82298573 1.11147514 9.49694613 1.25 14.375 C2.17851875 34.26828889 5.86806292 58.31415845 20.83984375 72.77734375 C38.54133687 87.00369712 64.34711974 87.01799234 85.85693359 84.69091797 C95.12740722 83.32365844 103.46054918 80.76631038 111 75 C112.25876953 74.06994141 112.25876953 74.06994141 113.54296875 73.12109375 C128.68650357 60.04805812 131.01218966 36.48231036 132.44213867 17.8737793 C132.63449841 15.24957662 132.82122343 12.62515895 133 10 C151.34489421 1.36541968 151.34489421 1.36541968 161 3 C164.96 4.98 164.96 4.98 169 7 C169 16.57 169 26.14 169 36 C167.02 33.525 167.02 33.525 165 31 C163.35 31.33 161.7 31.66 160 32 C158.97438683 47.89700418 168.91748609 59.93266777 178.86328125 71.37109375 C181.77889803 74.95831513 183 76.78726718 183 81.4375 C181.74657408 85.90282985 179.84321982 87.69711828 176 90 C167.48866989 94.63459413 158.24885673 97.27292179 149 100 C148.67 101.65 148.34 103.3 148 105 C155.15533838 109.57941656 161.62273104 110.01984144 170 109 C179.51237891 106.59881698 188.27829554 101.0810874 193.47265625 92.59375 C195.2470192 88.7779157 196.19666165 85.12173388 197 81 C198.53986572 81.0314209 198.53986572 81.0314209 200.11083984 81.06347656 C204.01352312 81.13728481 207.91614875 81.18229669 211.81933594 81.21972656 C213.49099177 81.23952837 215.16258147 81.26657737 216.83398438 81.30175781 C232.07481366 81.61391938 245.77376902 79.57242245 260 74 C260.33806696 92.91961418 260.26760825 111.29294275 257 130 C256.88785156 130.69109863 256.77570313 131.38219727 256.66015625 132.09423828 C250.53762739 169.65141764 232.03264992 206.02989957 201.64453125 229.69921875 C173.83496396 249.65029687 138.93678412 255.8230754 105.4375 250.75 C71.95792097 245.2143163 41.92095926 231.0260387 16.37109375 208.703125 C13.94509919 206.61107474 13.94509919 206.61107474 10 207 C9.06203709 215.44166621 12.43039877 220.5049466 17.58203125 226.9921875 C41.63611202 253.16389614 82.31348716 267.83113446 117.08476257 269.34170532 C120.51437419 269.46195537 123.94419644 269.54746772 127.375 269.625 C128.80470747 269.66332473 130.23439544 269.7023839 131.6640625 269.7421875 C135.10919305 269.8365474 138.55447593 269.92112424 142 270 C142.01417969 271.24652344 142.02835938 272.49304688 142.04296875 273.77734375 C142.39068493 288.81829762 143.73617064 305.73617064 155 317 C159.05496371 319.94274509 162.90329934 321.63708758 168 321 C167.43945339 317.63672037 166.58158962 315.00887781 165 312 C174.11300025 313.25117012 181.06601281 315.88633244 186.98120117 323.23779297 C188.86636624 326.49854578 188.65046321 329.76201148 188.5 333.4375 C188.48155029 334.22664795 188.46310059 335.0157959 188.4440918 335.82885742 C187.66944133 357.06025541 179.66178517 375.91647256 166 392 C164.83597656 393.46566406 164.83597656 393.46566406 163.6484375 394.9609375 C147.45539471 414.34272622 120.97759277 423.555222 97 428 C96.10039551 428.1757959 95.20079102 428.3515918 94.27392578 428.53271484 C90.39464021 429.08640258 86.56674334 429.19888919 82.65625 429.23828125 C81.85838577 429.2480751 81.06052155 429.25786896 80.23847961 429.26795959 C63.13623142 429.43460087 46.63880656 429.45011028 30 425 C29.16065918 424.78569336 28.32131836 424.57138672 27.45654297 424.35058594 C15.07233687 421.13700725 3.48732225 416.60344029 -8 411 C-8.64775391 410.68836914 -9.29550781 410.37673828 -9.96289062 410.05566406 C-44.63987657 393.18143558 -74.15670538 363.80452847 -87.8125 327.4453125 C-89.23747883 323.31099891 -90.24497501 319.30364247 -91 315 C-90.26136719 314.72027344 -89.52273438 314.44054687 -88.76171875 314.15234375 C-68.90673039 306.30621747 -53.79789876 293.11841712 -44.3125 273.9375 C-39.24120146 261.86465088 -35.9344129 249.23618975 -34.11938477 236.29418945 C-33.42911975 231.68783113 -32.26091044 227.89735251 -30.3125 223.625 C-25.50977605 212.0135363 -26.48442286 198.43628251 -31.16577148 186.93164062 C-33.76925443 181.06223703 -36.96404918 175.4998628 -40.16967773 169.94335938 C-44.53442719 162.3015511 -47.9480859 154.32039367 -51.15966797 146.13574219 C-51.72980734 144.68670696 -52.3180517 143.24469034 -52.92236328 141.80957031 C-54.45108796 138.06345946 -55.29199783 135.84898481 -54 132 C-53.649375 131.236875 -53.29875 130.47375 -52.9375 129.6875 C-51.76665992 126.33109178 -51.80011676 123.53127058 -52 120 C-52.33 119.34 -52.66 118.68 -53 118 C-57.65054315 117.26570371 -59.90780011 118.44592394 -63.625 121 C-69.45931841 124.67701804 -74.24746363 125.12399271 -81 124 C-97.27840944 119.4236564 -107.92456911 108.3476328 -116.1875 94.125 C-125.25631915 77.95409356 -131.19149991 60.30838093 -127.30859375 41.68359375 C-124.12470892 32.10529586 -118.90943854 25.6754486 -110 21 C-105.26650155 18.63325077 -99.11462993 19.43634691 -94 20 C-88.90126345 21.82262528 -84.20067689 24.20606301 -79.9921875 27.63671875 C-76.10674718 30.29557889 -71.58691132 30.29942338 -67 30 C-60.18069269 27.64402404 -54.39817898 21.24628238 -50.91113281 15.07202148 C-47.95817195 10.27648791 -45.48978541 8.43068517 -40 7.01171875 C-37.67309996 6.53756676 -35.33907575 6.09738849 -33 5.6875 C-31.79134277 5.44950684 -30.58268555 5.21151367 -29.33740234 4.96630859 C-26.95880401 4.49904389 -24.57779356 4.04386082 -22.19433594 3.60205078 C-18.31247551 2.87041919 -14.47504557 2.00747313 -10.625 1.125 C-6.98313684 0.30628658 -3.73493001 -0.12223407 0 0 Z " fill="#FBB981" transform="translate(458,384)"/>
<path d="M0 0 C0.33 0 0.66 0 1 0 C1.02578125 1.20527344 1.0515625 2.41054688 1.078125 3.65234375 C1.58849245 20.90850955 3.71738784 37.90897001 6 55 C6.12101074 55.93972656 6.24202148 56.87945313 6.36669922 57.84765625 C17.15776724 140.71773797 54.87281791 226.92859512 107.890625 291.43359375 C109 293 109 293 109 295 C109.66 295 110.32 295 111 295 C112.3046875 296.4765625 112.3046875 296.4765625 113.875 298.625 C125.79139309 314.34188882 139.54398769 328.60040195 153.4375 342.5625 C154.07526367 343.20493652 154.71302734 343.84737305 155.37011719 344.50927734 C159.17516289 348.30144809 163.10163791 351.89705145 167.16723633 355.40795898 C169.53810114 357.46742474 171.82832469 359.60840566 174.125 361.75 C179.86866805 366.98154402 185.90271891 371.75156464 192.05615234 376.48876953 C194.0706862 378.05495448 196.06197246 379.64739564 198.05078125 381.24609375 C210.19063893 390.94517766 222.95000119 399.57590619 236 408 C236.67434082 408.43570312 237.34868164 408.87140625 238.04345703 409.3203125 C245.30726611 413.97957664 252.81497197 418.18855936 260.38427734 422.32568359 C264.22425042 424.42850531 267.98837895 426.60121577 271.7109375 428.90625 C277.73143276 432.54137532 284.04735282 435.45386476 290.4375 438.375 C291.05481995 438.65857361 291.67213989 438.94214722 292.3081665 439.23431396 C318.75093251 451.38070125 345.8702576 462.38921153 374 470 C375.28245605 470.35239746 375.28245605 470.35239746 376.59082031 470.71191406 C401.38075937 477.44996844 426.73344445 482.41571497 452.25 485.375 C452.93326355 485.45453918 453.6165271 485.53407837 454.32049561 485.61602783 C464.19763634 486.74536587 474.07714543 487.45567371 484 488 C484 488.33 484 488.66 484 489 C324.28 489 164.56 489 0 489 C0 327.63 0 166.26 0 0 Z " fill="#FEFEFE" transform="translate(0,535)"/>
<path d="M0 0 C0.33 0 0.66 0 1 0 C1 161.7 1 323.4 1 490 C-158.72 490 -318.44 490 -483 490 C-483 489.67 -483 489.34 -483 489 C-482.37472412 488.96036133 -481.74944824 488.92072266 -481.10522461 488.87988281 C-455.09736893 487.17907101 -429.34762871 484.1924573 -403.86865234 478.62353516 C-401.11030584 478.02397627 -398.34739231 477.45289933 -395.58203125 476.88671875 C-358.60549441 469.12838503 -320.96578643 455.6395227 -287.40429688 438.24560547 C-284.53920536 436.76127394 -281.66774689 435.28952564 -278.796875 433.81640625 C-276.57252906 432.6700226 -274.34857118 431.52288569 -272.125 430.375 C-271.07876465 429.83657471 -270.0325293 429.29814941 -268.95458984 428.7434082 C-262.48636544 425.3848873 -256.19970001 421.83006871 -250 418 C-249.06994141 417.42862305 -248.13988281 416.85724609 -247.18164062 416.26855469 C-229.8053614 405.56578658 -229.8053614 405.56578658 -213 394 C-212.27474121 393.4755127 -211.54948242 392.95102539 -210.80224609 392.41064453 C-201.30756393 385.53002283 -191.97944368 378.54385864 -183 371 C-181.04376312 369.39327744 -179.0854198 367.78911617 -177.125 366.1875 C-176.26132812 365.47980469 -175.39765625 364.77210938 -174.5078125 364.04296875 C-172.79658649 362.64893261 -171.07469092 361.26791723 -169.34375 359.8984375 C-166.07043648 357.24705355 -163.1802489 354.26767475 -160.3125 351.1875 C-159 350 -159 350 -157 350 C-157 349.34 -157 348.68 -157 348 C-155.6015625 346.625 -155.6015625 346.625 -153.625 345 C-146.4631434 338.902915 -139.89370019 332.21470235 -133.78515625 325.06640625 C-131.6945701 322.64644985 -129.53443303 320.29615585 -127.375 317.9375 C-124.73024143 315.02240835 -122.28641983 312.12231656 -120.0625 308.875 C-119.381875 307.92625 -118.70125 306.9775 -118 306 C-117.34 306 -116.68 306 -116 306 C-115.73703125 305.42378906 -115.4740625 304.84757812 -115.203125 304.25390625 C-113.92869963 301.86642756 -112.48417792 300.01474356 -110.75 297.9375 C-94.80462207 278.22843827 -80.54231476 257.03006324 -68 235 C-67.56155762 234.22994629 -67.12311523 233.45989258 -66.67138672 232.66650391 C-54.16937165 210.5449185 -43.23259751 187.76639125 -34.16308594 164.02783203 C-33.01906137 161.04962199 -31.84449323 158.08503361 -30.6640625 155.12109375 C-24.6095925 139.71811161 -20.09656437 124.02548049 -16 108 C-15.74734375 107.01306152 -15.4946875 106.02612305 -15.234375 105.00927734 C-10.33923784 85.66328736 -6.799317 66.12196917 -4.18969727 46.34326172 C-3.81241997 43.49939676 -3.41936445 40.65800047 -3.02539062 37.81640625 C-1.32072 25.21606618 -0.4005661 12.70716398 0 0 Z " fill="#FEFEFE" transform="translate(1023,534)"/>
<path d="M0 0 C159.72 0 319.44 0 484 0 C484 159.39 484 318.78 484 483 C483.67 483 483.34 483 483 483 C482.90295776 481.75186523 482.90295776 481.75186523 482.80395508 480.47851562 C481.13064192 459.4622769 478.56413756 438.78005781 475 418 C474.85030762 417.10394043 474.70061523 416.20788086 474.54638672 415.28466797 C473.20738013 407.29542792 471.41827969 399.55845776 469.07788086 391.79736328 C468.18443668 388.64976855 467.40890378 385.50837749 466.70227051 382.3147583 C464.39467102 371.9293256 461.31088686 361.8540184 458 351.75 C457.71787659 350.88415283 457.43575317 350.01830566 457.14508057 349.1262207 C451.88385069 333.04137329 445.85794168 317.47582421 439 302 C438.53883789 300.94441895 438.07767578 299.88883789 437.60253906 298.80126953 C431.16108421 284.0965573 423.9365799 269.95104066 416 256 C415.5683252 255.23606934 415.13665039 254.47213867 414.69189453 253.68505859 C408.31302893 242.43922565 401.32022779 231.65352504 394 221 C393.49678223 220.26716797 392.99356445 219.53433594 392.47509766 218.77929688 C379.47449814 199.92863665 365.15912738 182.3586076 349.52490234 165.63818359 C347.98291159 163.98164213 346.45269549 162.31497252 344.92578125 160.64453125 C337.03177093 152.01388095 329.06777574 143.49566891 320.1640625 135.88671875 C317.55165308 133.6091127 315.03292765 131.24065884 312.5 128.875 C305.29629245 122.21753423 297.69063369 116.08242875 290 110 C289.32839844 109.46616699 288.65679688 108.93233398 287.96484375 108.38232422 C276.41738175 99.24058347 264.33941628 91.03037078 252 83 C250.97390625 82.32324219 249.9478125 81.64648438 248.890625 80.94921875 C214.82582214 58.78593863 177.85517025 40.73440553 139.34350586 27.8112793 C136.79852215 26.93025202 134.28533767 25.97809673 131.765625 25.02734375 C125.47228006 22.727082 119.05604993 21.06913733 112.5625 19.4375 C111.42490234 19.14681641 110.28730469 18.85613281 109.11523438 18.55664062 C105.74524139 17.69732125 102.37301624 16.84736628 99 16 C97.95730957 15.73638672 96.91461914 15.47277344 95.84033203 15.20117188 C64.10831661 7.2084258 32.65737095 2.40119548 0 1 C0 0.67 0 0.34 0 0 Z " fill="#FEFEFE" transform="translate(540,0)"/>
<path d="M0 0 C159.72 0 319.44 0 484 0 C484 0.33 484 0.66 484 1 C483.22962402 1.02916504 482.45924805 1.05833008 481.66552734 1.08837891 C448.17622029 2.47824163 415.49527362 7.83854492 383 16 C381.92572754 16.26893066 380.85145508 16.53786133 379.74462891 16.81494141 C325.87163926 30.54990758 275.4263491 54.73315315 229 85 C227.84014221 85.74655764 226.68003037 86.49272092 225.51953125 87.23828125 C217.05172185 92.75778454 209.02761129 98.86649399 201 105 C199.69675781 105.99386719 199.69675781 105.99386719 198.3671875 107.0078125 C188.9098079 114.29575735 179.7930219 121.92373097 171 130 C170.4652002 130.48968262 169.93040039 130.97936523 169.37939453 131.48388672 C167.64698044 133.07066191 165.91674342 134.65977035 164.1875 136.25 C163.64818848 136.74540283 163.10887695 137.24080566 162.55322266 137.7512207 C159.29126319 140.76253286 156.12637493 143.84678924 153 147 C151.46164261 148.52805394 149.92249006 150.05530753 148.3828125 151.58203125 C146.6301396 153.32545173 144.87753744 155.06894335 143.125 156.8125 C142.25230469 157.67681641 141.37960938 158.54113281 140.48046875 159.43164062 C135.43608931 164.45705623 130.62507438 169.58866298 126 175 C124.96704048 176.16861208 123.93192062 177.33531855 122.89453125 178.5 C115.09617147 187.32571109 107.93081836 196.48292531 101 206 C99.86849538 207.54167092 98.73698481 209.08333747 97.60546875 210.625 C91.78687851 218.58510297 86.14063099 226.58000096 81 235 C80.41476563 235.92941406 79.82953125 236.85882813 79.2265625 237.81640625 C74.99354322 244.58059828 70.96809198 251.4528493 67 258.375 C66.52602783 259.19983887 66.05205566 260.02467773 65.5637207 260.87451172 C58.46600719 273.32592226 51.9074395 285.91685892 46.0625 299 C45.76252106 299.66875153 45.46254211 300.33750305 45.1534729 301.02651978 C27.89347389 339.56600087 14.93539509 380.273701 8 422 C7.79922852 423.20205078 7.59845703 424.40410156 7.39160156 425.64257812 C4.07994216 445.72771931 1.95743924 465.6628246 1 486 C0.67 486 0.34 486 0 486 C0 325.62 0 165.24 0 0 Z " fill="#FEFEFE" transform="translate(0,0)"/>
<path d="M0 0 C2.3417444 0.26793414 4.6762904 0.60512124 7 1 C8.75102877 3.22858208 8.97585728 4.7525371 9.25 7.5625 C9.78242646 10.26819366 9.78242646 10.26819366 12.6171875 11.5390625 C16.02892095 13.01249011 19.26401331 13.94728546 22.875 14.8125 C36.23262822 18.2232423 47.87400027 22.62917686 59 31 C59.88558594 31.62841797 59.88558594 31.62841797 60.7890625 32.26953125 C70.33128464 39.48998276 75.92401007 50.46519409 81 61 C81.47598633 61.98371582 81.95197266 62.96743164 82.44238281 63.98095703 C98.40695048 97.35915324 113.12513333 135.72435074 113.01416016 173.21606445 C113.0110936 174.56146049 113.0110936 174.56146049 113.00796509 175.93403625 C113.00533661 176.61580429 113.00270813 177.29757233 113 178 C112.44448959 178.00364563 111.88897919 178.00729126 111.31663513 178.01104736 C105.45848904 178.05333123 99.60109344 178.1229855 93.7434082 178.20751953 C91.56640178 178.23549377 89.38929823 178.25682351 87.2121582 178.27099609 C69.64164573 178.39214419 48.36669239 178.88266832 34.86328125 192.08984375 C32.46719668 195.20533386 30.71952509 198.47497357 29 202 C28.26136719 201.7834375 27.52273438 201.566875 26.76171875 201.34375 C12.81559004 197.51609587 0.84904125 198.42235993 -11.9453125 205.66796875 C-12.96238281 206.32732422 -12.96238281 206.32732422 -14 207 C-14.32871094 206.2265625 -14.65742187 205.453125 -14.99609375 204.65625 C-19.28322495 195.26871067 -24.30371341 188.76702925 -33.99501038 184.71626282 C-37.46527559 183.47654471 -40.99027492 182.88707743 -44.625 182.3359375 C-45.44693848 182.20980072 -46.26887695 182.08366394 -47.11572266 181.95370483 C-55.84795816 180.72241266 -64.5274896 180.54589088 -73.33398438 180.60888672 C-75.99921799 180.62499527 -78.66293612 180.60890875 -81.328125 180.58984375 C-96.97365414 180.56934436 -112.13596142 182.37315851 -127.125 187 C-127.96546875 187.2475 -128.8059375 187.495 -129.671875 187.75 C-133.60493762 188.91895979 -137.49197072 190.1687066 -141.36328125 191.52734375 C-146.82382405 193.36629355 -152.41784869 194.44624643 -158.0625 195.5625 C-160.13702382 195.97895195 -162.21124981 196.39689062 -164.28515625 196.81640625 C-165.75299561 197.1105542 -165.75299561 197.1105542 -167.25048828 197.41064453 C-169.69551857 197.93473467 -172.08665115 198.54961232 -174.49609375 199.21484375 C-177.82624051 199.96106393 -178.91033893 199.95252197 -182 199 C-181.83862549 198.30938477 -181.67725098 197.61876953 -181.51098633 196.90722656 C-180.95056272 193.71872953 -180.85625666 190.72135633 -180.82421875 187.484375 C-180.80037109 186.23269531 -180.77652344 184.98101562 -180.75195312 183.69140625 C-180.70924254 181.07958935 -180.67785277 178.46756094 -180.65820312 175.85546875 C-180.34052199 161.44899878 -174.62066738 151.92334465 -164.875 141.4375 C-152.98180962 130.33193812 -138.84288374 123.57910735 -124.29003906 116.60595703 C-121.12729373 115.06213551 -118.01115368 113.4505388 -114.8984375 111.80859375 C-113.03648247 110.85151554 -111.17450458 109.89448181 -109.3125 108.9375 C-108.47066162 108.47730469 -107.62882324 108.01710938 -106.76147461 107.54296875 C-101.05586058 104.68057784 -101.05586058 104.68057784 -97.98730469 105.60888672 C-96.12890625 106.67578125 -96.12890625 106.67578125 -93 109 C-81.66703141 113.19739578 -68.78694659 110.98332021 -57.86328125 106.3359375 C-49.26606313 102.37385625 -41.97921368 97.43690992 -35 91 C-34.38125 90.46117187 -33.7625 89.92234375 -33.125 89.3671875 C-13.49717797 71.28414776 -1.17137073 40.02337507 0.11132812 13.71679688 C0.23050672 9.13803233 0.166311 4.57663246 0 0 Z " fill="#FBB981" transform="translate(602,176)"/>
<path d="M0 0 C0.59353271 0.31026123 1.18706543 0.62052246 1.79858398 0.94018555 C4.13230836 2.4452708 5.4635846 3.66844259 7 6 C7.99523659 11.11336317 7.857533 16.1358095 7.6875 21.3125 C7.6611309 22.76789485 7.63525357 24.22329869 7.60986328 25.67871094 C7.22938253 41.46666669 5.31724753 59.46799329 -6.75 71 C-14.62425592 77.19663134 -23.68999929 79.14181305 -33.50390625 79.203125 C-34.22303696 79.20882507 -34.94216766 79.21452515 -35.68309021 79.22039795 C-37.20350694 79.22981618 -38.72394378 79.23636926 -40.24438477 79.24023438 C-42.53114212 79.2498679 -44.81697153 79.28088993 -47.10351562 79.3125 C-58.8614568 79.3976845 -71.42887746 78.67530404 -81 71 C-97.28469436 53.13207146 -96.74389281 24.61720249 -96 2 C-89.70796642 -0.74291286 -83.79237105 -2.70944657 -77 -3.6875 C-76.27039063 -3.80416016 -75.54078125 -3.92082031 -74.7890625 -4.04101562 C-72.52916456 -4.39189452 -70.26783989 -4.70493955 -68 -5 C-66.87174805 -5.14683228 -66.87174805 -5.14683228 -65.72070312 -5.29663086 C-47.08294186 -7.44257687 -16.68521851 -10.36638358 0 0 Z " fill="#FBBA81" transform="translate(569,376)"/>
<path d="M0 0 C2.57330664 0.03158946 5.14599957 0.04103005 7.71948242 0.046875 C9.3711826 0.05603162 11.02287659 0.06640307 12.67456055 0.078125 C13.43603897 0.08237488 14.1975174 0.08662476 14.98207092 0.09100342 C18.78211352 0.14204913 22.27608318 0.47775972 25.9831543 1.28125 C26.22969555 10.59928009 26.44895036 19.917436 26.63336658 29.23690414 C26.71985658 33.56431133 26.81574317 37.89108472 26.93310547 42.21777344 C27.04601728 46.393137 27.13424401 50.56835927 27.20535851 54.74463654 C27.23683227 56.33803389 27.27720635 57.93128104 27.32660866 59.52422333 C27.39429361 61.75566231 27.43032581 63.98553951 27.45898438 66.21777344 C27.48785233 67.48796326 27.51672028 68.75815308 27.54646301 70.0668335 C26.9831543 73.28125 26.9831543 73.28125 24.56913757 75.65020752 C13.19357113 82.82505365 1.9171774 84.82415464 -11.39648438 84.78222656 C-13.5805068 84.78124948 -15.76105755 84.82311056 -17.94458008 84.8671875 C-27.29723764 84.94778696 -35.02606738 83.91366319 -42.14526367 77.30566406 C-53.16098696 65.73989791 -52.52529552 49.7572207 -52.27075195 34.75390625 C-51.93291502 24.7868678 -50.1844169 16.3011763 -42.8293457 9.15625 C-29.87910791 0.52275814 -15.06645575 -0.18663567 0 0 Z " fill="#FBBA82" transform="translate(690.016845703125,367.71875)"/>
<path d="M0 0 C4.66482813 0.29631395 8.51366276 2.66683407 12.5625 4.8125 C28.50019257 13.02748472 46.80027508 17.83791891 64.51611328 12.35595703 C68.45842452 10.98441343 72.11840262 9.54232375 75.6796875 7.3515625 C78.8953927 5.47844129 81.34930523 5.65559483 85 6 C87 8 87 8 87.375 11.75 C87.20742621 17.54176917 84.35573034 20.67579827 80.3125 24.625 C68.06707179 34.12207774 50.73759569 34.36442181 35.92138672 32.77734375 C22.49382777 30.90388428 8.96444881 26.38747964 0 15.75 C-2.78829744 11.55347153 -2.84598659 6.87110172 -2 2 C-1.34 1.34 -0.68 0.68 0 0 Z " fill="#020101" transform="translate(555,521)"/>
<path d="M0 0 C2.89345249 2.62219132 2.98065014 3.7145895 3.25 7.6875 C3 11 3 11 2 12 C-2.63703089 12.26247345 -6.70120087 11.90975983 -11.25 11 C-30.87975781 7.54615654 -49.801777 10.37502839 -67.375 19.8125 C-70.45250618 21.20470518 -72.65795765 21.31088766 -76 21 C-76.33 20.67 -76.66 20.34 -77 20 C-77 14.40259581 -75.37172915 11.11661939 -71.546875 7.0546875 C-53.01115712 -7.89897447 -20.75448936 -13.42937547 0 0 Z " fill="#030201" transform="translate(560,333)"/>
<path d="M0 0 C2.11619678 1.89397087 3.5161063 3.56911891 3.90234375 6.4375 C3.85894097 12.24262153 3.85894097 12.24262153 1.63671875 14.46484375 C-4.10236932 15.19749329 -8.40054537 13.56169663 -13.71484375 11.4375 C-25.0487964 7.27503067 -40.95056353 7.94351339 -52.2265625 11.79296875 C-55.39839134 12.79032627 -58.06748317 12.75143489 -61.36328125 12.46484375 C-62.36328125 11.46484375 -62.36328125 11.46484375 -62.86328125 8.83984375 C-62.1106324 3.75946404 -59.35221053 1.50809105 -55.36328125 -1.53515625 C-38.61334803 -11.8511605 -16.1670344 -11.60947042 0 0 Z " fill="#040201" transform="translate(699.36328125,331.53515625)"/>
<path d="M0 0 C5.61660963 1.9762145 8.84094068 5.91178894 11.375 11.1875 C11.80654164 14.1341661 11.79419484 17.0266695 11.75 20 C11.76160156 20.76892578 11.77320313 21.53785156 11.78515625 22.33007812 C11.75690767 27.90917338 10.69997482 32.10473882 8.375 37.1875 C5.01674638 40.38193637 2.68717517 42.06370989 -1.9375 42.5 C-6.34748855 42.12627216 -7.68186789 41.45764679 -10.625 38.1875 C-15.15965079 29.90003476 -15.01978381 19.1299531 -12.5625 10.125 C-10.20791234 4.29933006 -6.39482452 0.33076679 0 0 Z " fill="#020101" transform="translate(530.625,385.8125)"/>
<path d="M0 0 C4.75011031 2.47239348 7.26337406 5.77440268 8.9375 10.8125 C10.87794436 18.86353624 10.84581084 26.49704074 7 34 C4.87494538 36.84002626 2.59283015 38.67831077 -0.9921875 39.40234375 C-5.45923134 39.61305337 -8.61785589 38.89898066 -12 36 C-15.10144942 31.03466248 -15.54474033 26.93858319 -15.5 21.25 C-15.49718018 20.4559375 -15.49436035 19.661875 -15.49145508 18.84375 C-15.31580707 12.44990118 -14.05681609 7.11958763 -10 2 C-6.19593784 -0.53604144 -4.51491096 -0.60198813 0 0 Z " fill="#030201" transform="translate(674,387)"/>
<path d="M0 0 C18.315 1.485 18.315 1.485 37 3 C37 3.33 37 3.66 37 4 C24.79 4 12.58 4 0 4 C0 2.66666667 0 1.33333333 0 0 Z " fill="#F1F0E3" transform="translate(447,1020)"/>
<path d="M0 0 C0.66 0.33 1.32 0.66 2 1 C0.046875 3.24609375 0.046875 3.24609375 -1.90625 5.4921875 C-3.19572458 6.95936421 -3.19572458 6.95936421 -3 9 C-4.32 8.67 -5.64 8.34 -7 8 C-7 7.34 -7 6.68 -7 6 C-8.98 6.33 -10.96 6.66 -13 7 C-10.35787411 5.23858274 -7.7572236 3.76181302 -4.9375 2.3125 C-3.62072266 1.62607422 -3.62072266 1.62607422 -2.27734375 0.92578125 C-1.52582031 0.62027344 -0.77429688 0.31476563 0 0 Z " fill="#F7C78B" transform="translate(498,349)"/>
<path d="M0 0 C2.475 0.495 2.475 0.495 5 1 C4.67 1.66 4.34 2.32 4 3 C4.28241883 5.3400417 4.61250787 7.67504723 5 10 C4.34 9.67 3.68 9.34 3 9 C2.64080332 7.33871537 2.31088368 5.67099977 2 4 C1.00916033 1.76591887 1.00916033 1.76591887 0 0 Z " fill="#F1CE8D" transform="translate(623,696)"/>
<path d="M0 0 C0.33 0.66 0.66 1.32 1 2 C0.01 2.66 -0.98 3.32 -2 4 C-1.67 4.66 -1.34 5.32 -1 6 C-3.97 5.505 -3.97 5.505 -7 5 C-2.25 1.125 -2.25 1.125 0 0 Z " fill="#462409" transform="translate(664,629)"/>
<path d="M0 0 C0.66 0.33 1.32 0.66 2 1 C1.01 2.98 0.02 4.96 -1 7 C-1.33 6.34 -1.66 5.68 -2 5 C-1.67 4.34 -1.34 3.68 -1 3 C-2.32 3.33 -3.64 3.66 -5 4 C-3.36587557 2.29159719 -2.13093906 1.06546953 0 0 Z " fill="#F5E64F" transform="translate(402,637)"/>
</svg>
